<mxfile host="app.diagrams.net" modified="2021-12-18T22:06:45.000Z" agent="5.0 (X11)" etag="AjK9RM18U7YdM5JBXrh8" version="16.0.0" type="github" pages="2">
  <diagram id="TWfBG6paHgwE_CAJPIZ4" name="Class">
    <mxGraphModel dx="375" dy="212" grid="1" gridSize="10" guides="1" tooltips="1" connect="1" arrows="1" fold="1" page="1" pageScale="1" pageWidth="827" pageHeight="1169" math="0" shadow="0">
      <root>
        <mxCell id="0" />
        <mxCell id="1" parent="0" />
        <mxCell id="cH0eLoG-69Wfa-AFpxMm-3" value="CPir" style="swimlane;fontStyle=1;align=center;verticalAlign=top;childLayout=stackLayout;horizontal=1;startSize=26;horizontalStack=0;resizeParent=1;resizeParentMax=0;resizeLast=0;collapsible=1;marginBottom=0;fillColor=#FAE5C7;strokeColor=#0F8B8D;fontColor=#143642;" parent="1" vertex="1">
          <mxGeometry x="320" y="188" width="210" height="86" as="geometry" />
        </mxCell>
        <mxCell id="cH0eLoG-69Wfa-AFpxMm-5" value="" style="line;strokeWidth=1;fillColor=none;align=left;verticalAlign=middle;spacingTop=-1;spacingLeft=3;spacingRight=3;rotatable=0;labelPosition=right;points=[];portConstraint=eastwest;labelBackgroundColor=#DAD2D8;strokeColor=#0F8B8D;fontColor=#143642;" parent="cH0eLoG-69Wfa-AFpxMm-3" vertex="1">
          <mxGeometry y="26" width="210" height="8" as="geometry" />
        </mxCell>
        <mxCell id="cH0eLoG-69Wfa-AFpxMm-6" value="+ CPir(IN void *pirISR(void))&#xa;+ ~CPir(void)&#xa;&#xa;&#xa; " style="text;strokeColor=none;fillColor=none;align=left;verticalAlign=top;spacingLeft=4;spacingRight=4;overflow=hidden;rotatable=0;points=[[0,0.5],[1,0.5]];portConstraint=eastwest;fontColor=#143642;" parent="cH0eLoG-69Wfa-AFpxMm-3" vertex="1">
          <mxGeometry y="34" width="210" height="52" as="geometry" />
        </mxCell>
      </root>
    </mxGraphModel>
  </diagram>
  <diagram id="EubKbIE0oCBdHCRkwixs" name="Constructor">
    <mxGraphModel dx="643" dy="364" grid="1" gridSize="10" guides="1" tooltips="1" connect="1" arrows="1" fold="1" page="1" pageScale="1" pageWidth="850" pageHeight="1100" math="0" shadow="0">
      <root>
        <mxCell id="gARFbOcgHYlfv7_gP0-p-0" />
        <mxCell id="gARFbOcgHYlfv7_gP0-p-1" parent="gARFbOcgHYlfv7_gP0-p-0" />
        <mxCell id="gARFbOcgHYlfv7_gP0-p-2" style="edgeStyle=orthogonalEdgeStyle;curved=0;rounded=1;sketch=0;orthogonalLoop=1;jettySize=auto;html=1;exitX=0.5;exitY=1;exitDx=0;exitDy=0;entryX=0.5;entryY=0;entryDx=0;entryDy=0;fontColor=#143642;strokeColor=#A8201A;fillColor=#FAE5C7;" parent="gARFbOcgHYlfv7_gP0-p-1" source="gARFbOcgHYlfv7_gP0-p-3" edge="1">
          <mxGeometry relative="1" as="geometry">
            <mxPoint x="435.26" y="119.99999999999989" as="targetPoint" />
          </mxGeometry>
        </mxCell>
        <mxCell id="gARFbOcgHYlfv7_gP0-p-3" value="&lt;div&gt;CPir&lt;/div&gt;&lt;div&gt;&lt;br&gt;&lt;/div&gt;&lt;div&gt;IN: *&lt;i&gt;&lt;span style=&quot;font-weight: normal&quot;&gt;pirISR()&lt;/span&gt;&lt;/i&gt; &lt;/div&gt;" style="ellipse;whiteSpace=wrap;html=1;fillColor=#FAE5C7;strokeColor=#0F8B8D;fontColor=#143642;fontStyle=1" parent="gARFbOcgHYlfv7_gP0-p-1" vertex="1">
          <mxGeometry x="360.26" y="30" width="150" height="60" as="geometry" />
        </mxCell>
        <mxCell id="gARFbOcgHYlfv7_gP0-p-4" style="edgeStyle=orthogonalEdgeStyle;curved=0;rounded=1;sketch=0;orthogonalLoop=1;jettySize=auto;html=1;exitX=0.5;exitY=1;exitDx=0;exitDy=0;entryX=0.5;entryY=0;entryDx=0;entryDy=0;fontColor=#143642;strokeColor=#A8201A;fillColor=#FAE5C7;" parent="gARFbOcgHYlfv7_gP0-p-1" source="gARFbOcgHYlfv7_gP0-p-5" edge="1" target="LV8X2QdvA9ExCRtLHR7V-0">
          <mxGeometry relative="1" as="geometry">
            <mxPoint x="435" y="200" as="targetPoint" />
          </mxGeometry>
        </mxCell>
        <mxCell id="gARFbOcgHYlfv7_gP0-p-5" value="&lt;b&gt;Insert&lt;/b&gt; PIR device driver" style="rounded=0;whiteSpace=wrap;html=1;sketch=0;fontColor=#143642;strokeColor=#0F8B8D;fillColor=#FAE5C7;" parent="gARFbOcgHYlfv7_gP0-p-1" vertex="1">
          <mxGeometry x="360.26" y="120" width="150" height="40" as="geometry" />
        </mxCell>
        <mxCell id="gARFbOcgHYlfv7_gP0-p-6" style="edgeStyle=orthogonalEdgeStyle;curved=0;rounded=1;sketch=0;orthogonalLoop=1;jettySize=auto;html=1;exitX=0.5;exitY=1;exitDx=0;exitDy=0;entryX=0.5;entryY=0;entryDx=0;entryDy=0;fontColor=#143642;strokeColor=#A8201A;fillColor=#FAE5C7;" parent="gARFbOcgHYlfv7_gP0-p-1" source="LV8X2QdvA9ExCRtLHR7V-0" target="gARFbOcgHYlfv7_gP0-p-8" edge="1">
          <mxGeometry relative="1" as="geometry">
            <mxPoint x="434.76" y="230" as="sourcePoint" />
          </mxGeometry>
        </mxCell>
        <mxCell id="gARFbOcgHYlfv7_gP0-p-8" value="End" style="ellipse;whiteSpace=wrap;html=1;fillColor=#FAE5C7;strokeColor=#0F8B8D;fontColor=#143642;fontStyle=1" parent="gARFbOcgHYlfv7_gP0-p-1" vertex="1">
          <mxGeometry x="406.14" y="250" width="58.25" height="40" as="geometry" />
        </mxCell>
        <mxCell id="LV8X2QdvA9ExCRtLHR7V-0" value="&lt;b&gt;Set ISR&lt;/b&gt; to *&lt;i&gt;pirISR()&lt;/i&gt;" style="rounded=0;whiteSpace=wrap;html=1;sketch=0;fontColor=#143642;strokeColor=#0F8B8D;fillColor=#FAE5C7;" parent="gARFbOcgHYlfv7_gP0-p-1" vertex="1">
          <mxGeometry x="360.26" y="180" width="150" height="40" as="geometry" />
        </mxCell>
        <mxCell id="Y4TFFLjypiq3IUlGHGo--0" value="function that will implement the &lt;b&gt;PIR ISR&lt;/b&gt;" style="shape=note;whiteSpace=wrap;html=1;backgroundOutline=1;darkOpacity=0.05;rounded=0;sketch=0;fontColor=#143642;strokeColor=#0F8B8D;fillColor=#FAE5C7;size=9;fontSize=10;align=center;horizontal=1;verticalAlign=middle;" parent="gARFbOcgHYlfv7_gP0-p-1" vertex="1">
          <mxGeometry x="190" y="80" width="110" height="50" as="geometry" />
        </mxCell>
        <mxCell id="Y4TFFLjypiq3IUlGHGo--1" value="" style="endArrow=none;dashed=1;html=1;rounded=1;sketch=0;fontColor=#143642;strokeColor=#A8201A;fillColor=#FAE5C7;curved=0;exitX=0;exitY=0;exitDx=110;exitDy=29.5;exitPerimeter=0;entryX=0;entryY=1;entryDx=0;entryDy=0;" parent="gARFbOcgHYlfv7_gP0-p-1" source="Y4TFFLjypiq3IUlGHGo--0" target="gARFbOcgHYlfv7_gP0-p-3" edge="1">
          <mxGeometry width="50" height="50" relative="1" as="geometry">
            <mxPoint x="310.19" y="89.99999999999989" as="sourcePoint" />
            <mxPoint x="330.18999999999994" y="120" as="targetPoint" />
          </mxGeometry>
        </mxCell>
        <mxCell id="jg5DfZLlj7k6wXaWBkHM-0" style="edgeStyle=orthogonalEdgeStyle;curved=0;rounded=1;sketch=0;orthogonalLoop=1;jettySize=auto;html=1;exitX=0.5;exitY=1;exitDx=0;exitDy=0;entryX=0.5;entryY=0;entryDx=0;entryDy=0;fontColor=#143642;strokeColor=#A8201A;fillColor=#FAE5C7;" parent="gARFbOcgHYlfv7_gP0-p-1" source="jg5DfZLlj7k6wXaWBkHM-1" edge="1">
          <mxGeometry relative="1" as="geometry">
            <mxPoint x="645" y="119.99999999999989" as="targetPoint" />
          </mxGeometry>
        </mxCell>
        <mxCell id="jg5DfZLlj7k6wXaWBkHM-1" value="&lt;div&gt;~CPir&lt;/div&gt;" style="ellipse;whiteSpace=wrap;html=1;fillColor=#FAE5C7;strokeColor=#0F8B8D;fontColor=#143642;fontStyle=1" parent="gARFbOcgHYlfv7_gP0-p-1" vertex="1">
          <mxGeometry x="585" y="30" width="120" height="60" as="geometry" />
        </mxCell>
        <mxCell id="jg5DfZLlj7k6wXaWBkHM-2" value="&lt;b&gt;Remove&lt;/b&gt; PIR device driver" style="rounded=0;whiteSpace=wrap;html=1;sketch=0;fontColor=#143642;strokeColor=#0F8B8D;fillColor=#FAE5C7;" parent="gARFbOcgHYlfv7_gP0-p-1" vertex="1">
          <mxGeometry x="570" y="180" width="150" height="40" as="geometry" />
        </mxCell>
        <mxCell id="jg5DfZLlj7k6wXaWBkHM-3" style="edgeStyle=orthogonalEdgeStyle;curved=0;rounded=1;sketch=0;orthogonalLoop=1;jettySize=auto;html=1;exitX=0.5;exitY=1;exitDx=0;exitDy=0;entryX=0.5;entryY=0;entryDx=0;entryDy=0;fontColor=#143642;strokeColor=#A8201A;fillColor=#FAE5C7;" parent="gARFbOcgHYlfv7_gP0-p-1" target="jg5DfZLlj7k6wXaWBkHM-4" edge="1">
          <mxGeometry relative="1" as="geometry">
            <mxPoint x="645" y="220" as="sourcePoint" />
          </mxGeometry>
        </mxCell>
        <mxCell id="jg5DfZLlj7k6wXaWBkHM-4" value="End" style="ellipse;whiteSpace=wrap;html=1;fillColor=#FAE5C7;strokeColor=#0F8B8D;fontColor=#143642;fontStyle=1" parent="gARFbOcgHYlfv7_gP0-p-1" vertex="1">
          <mxGeometry x="615.88" y="250" width="58.25" height="40" as="geometry" />
        </mxCell>
        <mxCell id="jg5DfZLlj7k6wXaWBkHM-5" style="edgeStyle=orthogonalEdgeStyle;rounded=1;orthogonalLoop=1;jettySize=auto;html=1;exitX=0.5;exitY=1;exitDx=0;exitDy=0;entryX=0.5;entryY=0;entryDx=0;entryDy=0;strokeColor=#A8201A;" parent="gARFbOcgHYlfv7_gP0-p-1" source="jg5DfZLlj7k6wXaWBkHM-6" target="jg5DfZLlj7k6wXaWBkHM-2" edge="1">
          <mxGeometry relative="1" as="geometry" />
        </mxCell>
        <mxCell id="jg5DfZLlj7k6wXaWBkHM-6" value="&lt;b&gt;Disable ISR&lt;/b&gt;&lt;i&gt;&lt;/i&gt;" style="rounded=0;whiteSpace=wrap;html=1;sketch=0;fontColor=#143642;strokeColor=#0F8B8D;fillColor=#FAE5C7;" parent="gARFbOcgHYlfv7_gP0-p-1" vertex="1">
          <mxGeometry x="570" y="120" width="150" height="40" as="geometry" />
        </mxCell>
      </root>
    </mxGraphModel>
  </diagram>
</mxfile>
